<svg width="398" height="374" viewBox="0 0 398 374" fill="none" xmlns="http://www.w3.org/2000/svg">
<circle cx="199" cy="187" r="125" fill="url(#paint0_radial_41_89)"/>
<path d="M153.104 145.488C153.104 142.843 154 140.624 155.792 138.832C157.584 137.04 159.802 136.144 162.448 136.144C165.093 136.144 167.312 137.04 169.104 138.832C170.896 140.624 171.792 142.843 171.792 145.488C171.792 148.048 170.896 150.224 169.104 152.016C167.312 153.808 165.093 154.704 162.448 154.704C159.802 154.704 157.584 153.808 155.792 152.016C154 150.224 153.104 148.048 153.104 145.488ZM206.864 145.488C206.864 142.843 207.76 140.624 209.552 138.832C211.344 137.04 213.562 136.144 216.208 136.144C218.853 136.144 221.072 137.04 222.864 138.832C224.656 140.624 225.552 142.843 225.552 145.488C225.552 148.048 224.656 150.224 222.864 152.016C221.072 153.808 218.853 154.704 216.208 154.704C213.562 154.704 211.344 153.808 209.552 152.016C207.76 150.224 206.864 148.048 206.864 145.488ZM216.464 239.583C211.941 239.583 207.674 238.517 203.664 236.383C199.653 234.25 196.368 230.837 193.808 226.143C191.333 221.45 190.096 215.434 190.096 208.095V191.967H154V177.375L242.96 177.375V208.095C242.96 214.922 241.765 220.682 239.376 225.375C237.072 230.154 233.914 233.695 229.904 235.999C225.893 238.389 221.413 239.583 216.464 239.583ZM202 208.095C202 213.642 203.237 217.781 205.712 220.511C208.272 223.242 211.856 224.607 216.464 224.607C226.192 224.607 231.056 219.103 231.056 208.095V191.967H202V208.095Z" fill="black"/>
<circle cx="199" cy="187" r="125" fill="url(#paint1_radial_41_89)"/>
<ellipse cx="198.5" cy="187.5" rx="88.5" ry="90.5" fill="url(#paint2_radial_41_89)"/>
<path d="M153.104 145.488C153.104 142.843 154 140.624 155.792 138.832C157.584 137.04 159.802 136.144 162.448 136.144C165.093 136.144 167.312 137.04 169.104 138.832C170.896 140.624 171.792 142.843 171.792 145.488C171.792 148.048 170.896 150.224 169.104 152.016C167.312 153.808 165.093 154.704 162.448 154.704C159.802 154.704 157.584 153.808 155.792 152.016C154 150.224 153.104 148.048 153.104 145.488ZM206.864 145.488C206.864 142.843 207.76 140.624 209.552 138.832C211.344 137.04 213.562 136.144 216.208 136.144C218.853 136.144 221.072 137.04 222.864 138.832C224.656 140.624 225.552 142.843 225.552 145.488C225.552 148.048 224.656 150.224 222.864 152.016C221.072 153.808 218.853 154.704 216.208 154.704C213.562 154.704 211.344 153.808 209.552 152.016C207.76 150.224 206.864 148.048 206.864 145.488ZM216.464 239.583C211.941 239.583 207.674 238.517 203.664 236.383C199.653 234.25 196.368 230.837 193.808 226.143C191.333 221.45 190.096 215.434 190.096 208.095V191.967H154V177.375L242.96 177.375V208.095C242.96 214.922 241.765 220.682 239.376 225.375C237.072 230.154 233.914 233.695 229.904 235.999C225.893 238.389 221.413 239.583 216.464 239.583ZM202 208.095C202 213.642 203.237 217.781 205.712 220.511C208.272 223.242 211.856 224.607 216.464 224.607C226.192 224.607 231.056 219.103 231.056 208.095V191.967H202V208.095Z" fill="black"/>
<defs>
<radialGradient id="paint0_radial_41_89" cx="0" cy="0" r="1" gradientUnits="userSpaceOnUse" gradientTransform="translate(199 187) rotate(90) scale(125)">
<stop offset="1" stop-color="#1A29F6"/>
</radialGradient>
<radialGradient id="paint1_radial_41_89" cx="0" cy="0" r="1" gradientUnits="userSpaceOnUse" gradientTransform="translate(199 187) rotate(90) scale(125)">
<stop offset="1" stop-color="#1A29F6"/>
</radialGradient>
<radialGradient id="paint2_radial_41_89" cx="0" cy="0" r="1" gradientUnits="userSpaceOnUse" gradientTransform="translate(198.5 187.5) rotate(90) scale(90.5 88.5)">
<stop offset="1" stop-color="#1AF61E"/>
</radialGradient>
</defs>
</svg>
